<mxfile host="Electron" modified="2023-06-28T14:18:43.875Z" agent="Mozilla/5.0 (Macintosh; Intel Mac OS X 10_15_7) AppleWebKit/537.36 (KHTML, like Gecko) draw.io/21.4.0 Chrome/112.0.5615.204 Electron/24.5.1 Safari/537.36" etag="cqvE-5aRtY1XaK74SEZm" version="21.4.0" type="device">
  <diagram name="Page-1" id="qXjHHS7PgBrAAGoSpPlp">
    <mxGraphModel dx="3515" dy="2108" grid="0" gridSize="10" guides="1" tooltips="1" connect="1" arrows="1" fold="1" page="0" pageScale="1" pageWidth="827" pageHeight="1169" math="0" shadow="0">
      <root>
        <mxCell id="0" />
        <mxCell id="1" parent="0" />
        <mxCell id="LghL1uSSu05X4-vozEFq-20" style="edgeStyle=orthogonalEdgeStyle;orthogonalLoop=1;jettySize=auto;html=1;exitX=1;exitY=0;exitDx=0;exitDy=0;entryX=0;entryY=0;entryDx=0;entryDy=0;curved=1;" parent="1" source="LghL1uSSu05X4-vozEFq-1" target="LghL1uSSu05X4-vozEFq-10" edge="1">
          <mxGeometry relative="1" as="geometry" />
        </mxCell>
        <mxCell id="LghL1uSSu05X4-vozEFq-1" value="row0" style="rounded=0;whiteSpace=wrap;html=1;" parent="1" vertex="1">
          <mxGeometry x="110" y="40" width="220" height="60" as="geometry" />
        </mxCell>
        <mxCell id="LghL1uSSu05X4-vozEFq-2" value="row1" style="rounded=0;whiteSpace=wrap;html=1;" parent="1" vertex="1">
          <mxGeometry x="110" y="120" width="220" height="60" as="geometry" />
        </mxCell>
        <mxCell id="LghL1uSSu05X4-vozEFq-3" value="row2" style="rounded=0;whiteSpace=wrap;html=1;" parent="1" vertex="1">
          <mxGeometry x="110" y="200" width="220" height="60" as="geometry" />
        </mxCell>
        <mxCell id="LghL1uSSu05X4-vozEFq-4" value="0" style="ellipse;whiteSpace=wrap;html=1;aspect=fixed;" parent="1" vertex="1">
          <mxGeometry x="120" y="50" width="40" height="40" as="geometry" />
        </mxCell>
        <mxCell id="LghL1uSSu05X4-vozEFq-5" value="1" style="ellipse;whiteSpace=wrap;html=1;aspect=fixed;" parent="1" vertex="1">
          <mxGeometry x="120" y="130" width="40" height="40" as="geometry" />
        </mxCell>
        <mxCell id="LghL1uSSu05X4-vozEFq-6" value="2" style="ellipse;whiteSpace=wrap;html=1;aspect=fixed;" parent="1" vertex="1">
          <mxGeometry x="120" y="210" width="40" height="40" as="geometry" />
        </mxCell>
        <mxCell id="LghL1uSSu05X4-vozEFq-7" value="" style="rhombus;whiteSpace=wrap;html=1;" parent="1" vertex="1">
          <mxGeometry x="330" y="40" width="60" height="60" as="geometry" />
        </mxCell>
        <mxCell id="LghL1uSSu05X4-vozEFq-8" value="" style="rhombus;whiteSpace=wrap;html=1;" parent="1" vertex="1">
          <mxGeometry x="330" y="120" width="60" height="60" as="geometry" />
        </mxCell>
        <mxCell id="LghL1uSSu05X4-vozEFq-9" value="" style="rhombus;whiteSpace=wrap;html=1;" parent="1" vertex="1">
          <mxGeometry x="330" y="200" width="60" height="60" as="geometry" />
        </mxCell>
        <mxCell id="LghL1uSSu05X4-vozEFq-32" style="edgeStyle=orthogonalEdgeStyle;orthogonalLoop=1;jettySize=auto;html=1;exitX=1;exitY=0;exitDx=0;exitDy=0;entryX=0;entryY=0;entryDx=0;entryDy=0;curved=1;" parent="1" source="LghL1uSSu05X4-vozEFq-10" target="LghL1uSSu05X4-vozEFq-21" edge="1">
          <mxGeometry relative="1" as="geometry" />
        </mxCell>
        <mxCell id="LghL1uSSu05X4-vozEFq-10" value="row0" style="rounded=0;whiteSpace=wrap;html=1;" parent="1" vertex="1">
          <mxGeometry x="430" y="40" width="220" height="60" as="geometry" />
        </mxCell>
        <mxCell id="LghL1uSSu05X4-vozEFq-11" value="row1" style="rounded=0;whiteSpace=wrap;html=1;" parent="1" vertex="1">
          <mxGeometry x="430" y="120" width="220" height="60" as="geometry" />
        </mxCell>
        <mxCell id="LghL1uSSu05X4-vozEFq-12" value="row2" style="rounded=0;whiteSpace=wrap;html=1;" parent="1" vertex="1">
          <mxGeometry x="430" y="200" width="220" height="60" as="geometry" />
        </mxCell>
        <mxCell id="LghL1uSSu05X4-vozEFq-13" value="0" style="ellipse;whiteSpace=wrap;html=1;aspect=fixed;" parent="1" vertex="1">
          <mxGeometry x="440" y="50" width="40" height="40" as="geometry" />
        </mxCell>
        <mxCell id="LghL1uSSu05X4-vozEFq-14" value="1" style="ellipse;whiteSpace=wrap;html=1;aspect=fixed;" parent="1" vertex="1">
          <mxGeometry x="440" y="130" width="40" height="40" as="geometry" />
        </mxCell>
        <mxCell id="LghL1uSSu05X4-vozEFq-15" value="2" style="ellipse;whiteSpace=wrap;html=1;aspect=fixed;" parent="1" vertex="1">
          <mxGeometry x="440" y="210" width="40" height="40" as="geometry" />
        </mxCell>
        <mxCell id="LghL1uSSu05X4-vozEFq-16" value="Kitty 1" style="rhombus;whiteSpace=wrap;html=1;" parent="1" vertex="1">
          <mxGeometry x="650" y="40" width="60" height="60" as="geometry" />
        </mxCell>
        <mxCell id="LghL1uSSu05X4-vozEFq-17" value="" style="rhombus;whiteSpace=wrap;html=1;" parent="1" vertex="1">
          <mxGeometry x="650" y="120" width="60" height="60" as="geometry" />
        </mxCell>
        <mxCell id="LghL1uSSu05X4-vozEFq-18" value="" style="rhombus;whiteSpace=wrap;html=1;" parent="1" vertex="1">
          <mxGeometry x="650" y="200" width="60" height="60" as="geometry" />
        </mxCell>
        <mxCell id="LghL1uSSu05X4-vozEFq-19" value="Kitty got another fish" style="text;html=1;align=center;verticalAlign=middle;resizable=0;points=[];autosize=1;strokeColor=none;fillColor=none;" parent="1" vertex="1">
          <mxGeometry x="310" y="-20" width="130" height="30" as="geometry" />
        </mxCell>
        <mxCell id="LghL1uSSu05X4-vozEFq-43" style="edgeStyle=orthogonalEdgeStyle;orthogonalLoop=1;jettySize=auto;html=1;exitX=1;exitY=0;exitDx=0;exitDy=0;entryX=0;entryY=0;entryDx=0;entryDy=0;curved=1;" parent="1" source="LghL1uSSu05X4-vozEFq-21" target="LghL1uSSu05X4-vozEFq-34" edge="1">
          <mxGeometry relative="1" as="geometry" />
        </mxCell>
        <mxCell id="LghL1uSSu05X4-vozEFq-21" value="row0" style="rounded=0;whiteSpace=wrap;html=1;" parent="1" vertex="1">
          <mxGeometry x="760" y="40" width="220" height="60" as="geometry" />
        </mxCell>
        <mxCell id="LghL1uSSu05X4-vozEFq-22" value="row1" style="rounded=0;whiteSpace=wrap;html=1;" parent="1" vertex="1">
          <mxGeometry x="760" y="120" width="220" height="60" as="geometry" />
        </mxCell>
        <mxCell id="LghL1uSSu05X4-vozEFq-23" value="row2" style="rounded=0;whiteSpace=wrap;html=1;" parent="1" vertex="1">
          <mxGeometry x="760" y="200" width="220" height="60" as="geometry" />
        </mxCell>
        <mxCell id="LghL1uSSu05X4-vozEFq-24" value="0" style="ellipse;whiteSpace=wrap;html=1;aspect=fixed;" parent="1" vertex="1">
          <mxGeometry x="770" y="50" width="40" height="40" as="geometry" />
        </mxCell>
        <mxCell id="LghL1uSSu05X4-vozEFq-25" value="1" style="ellipse;whiteSpace=wrap;html=1;aspect=fixed;" parent="1" vertex="1">
          <mxGeometry x="770" y="130" width="40" height="40" as="geometry" />
        </mxCell>
        <mxCell id="LghL1uSSu05X4-vozEFq-26" value="2" style="ellipse;whiteSpace=wrap;html=1;aspect=fixed;" parent="1" vertex="1">
          <mxGeometry x="770" y="210" width="40" height="40" as="geometry" />
        </mxCell>
        <mxCell id="LghL1uSSu05X4-vozEFq-27" value="Kitty 10" style="rhombus;whiteSpace=wrap;html=1;" parent="1" vertex="1">
          <mxGeometry x="980" y="40" width="60" height="60" as="geometry" />
        </mxCell>
        <mxCell id="LghL1uSSu05X4-vozEFq-28" value="" style="rhombus;whiteSpace=wrap;html=1;" parent="1" vertex="1">
          <mxGeometry x="980" y="120" width="60" height="60" as="geometry" />
        </mxCell>
        <mxCell id="LghL1uSSu05X4-vozEFq-29" value="" style="rhombus;whiteSpace=wrap;html=1;" parent="1" vertex="1">
          <mxGeometry x="980" y="200" width="60" height="60" as="geometry" />
        </mxCell>
        <mxCell id="LghL1uSSu05X4-vozEFq-33" value="Kitty got another fish x10" style="text;html=1;align=center;verticalAlign=middle;resizable=0;points=[];autosize=1;strokeColor=none;fillColor=none;" parent="1" vertex="1">
          <mxGeometry x="630" y="-20" width="160" height="30" as="geometry" />
        </mxCell>
        <mxCell id="LghL1uSSu05X4-vozEFq-54" style="edgeStyle=orthogonalEdgeStyle;orthogonalLoop=1;jettySize=auto;html=1;exitX=1;exitY=0;exitDx=0;exitDy=0;entryX=0;entryY=0;entryDx=0;entryDy=0;curved=1;" parent="1" source="LghL1uSSu05X4-vozEFq-34" target="LghL1uSSu05X4-vozEFq-46" edge="1">
          <mxGeometry relative="1" as="geometry" />
        </mxCell>
        <mxCell id="LghL1uSSu05X4-vozEFq-34" value="row0" style="rounded=0;whiteSpace=wrap;html=1;" parent="1" vertex="1">
          <mxGeometry x="1080" y="40" width="220" height="60" as="geometry" />
        </mxCell>
        <mxCell id="LghL1uSSu05X4-vozEFq-35" value="row1" style="rounded=0;whiteSpace=wrap;html=1;" parent="1" vertex="1">
          <mxGeometry x="1080" y="120" width="220" height="60" as="geometry" />
        </mxCell>
        <mxCell id="LghL1uSSu05X4-vozEFq-36" value="row2" style="rounded=0;whiteSpace=wrap;html=1;" parent="1" vertex="1">
          <mxGeometry x="1080" y="200" width="220" height="60" as="geometry" />
        </mxCell>
        <mxCell id="LghL1uSSu05X4-vozEFq-37" value="0" style="ellipse;whiteSpace=wrap;html=1;aspect=fixed;" parent="1" vertex="1">
          <mxGeometry x="1090" y="50" width="40" height="40" as="geometry" />
        </mxCell>
        <mxCell id="LghL1uSSu05X4-vozEFq-38" value="1" style="ellipse;whiteSpace=wrap;html=1;aspect=fixed;" parent="1" vertex="1">
          <mxGeometry x="1090" y="130" width="40" height="40" as="geometry" />
        </mxCell>
        <mxCell id="LghL1uSSu05X4-vozEFq-39" value="2" style="ellipse;whiteSpace=wrap;html=1;aspect=fixed;" parent="1" vertex="1">
          <mxGeometry x="1090" y="210" width="40" height="40" as="geometry" />
        </mxCell>
        <mxCell id="LghL1uSSu05X4-vozEFq-40" value="Kitty 10" style="rhombus;whiteSpace=wrap;html=1;" parent="1" vertex="1">
          <mxGeometry x="1300" y="40" width="60" height="60" as="geometry" />
        </mxCell>
        <mxCell id="LghL1uSSu05X4-vozEFq-41" value="Dog1 1" style="rhombus;whiteSpace=wrap;html=1;" parent="1" vertex="1">
          <mxGeometry x="1300" y="120" width="60" height="60" as="geometry" />
        </mxCell>
        <mxCell id="LghL1uSSu05X4-vozEFq-42" value="" style="rhombus;whiteSpace=wrap;html=1;" parent="1" vertex="1">
          <mxGeometry x="1300" y="200" width="60" height="60" as="geometry" />
        </mxCell>
        <mxCell id="LghL1uSSu05X4-vozEFq-44" value="Dog1 got another fish" style="text;html=1;align=center;verticalAlign=middle;resizable=0;points=[];autosize=1;strokeColor=none;fillColor=none;" parent="1" vertex="1">
          <mxGeometry x="960" y="-20" width="140" height="30" as="geometry" />
        </mxCell>
        <mxCell id="LghL1uSSu05X4-vozEFq-45" value="row0" style="rounded=0;whiteSpace=wrap;html=1;" parent="1" vertex="1">
          <mxGeometry x="1400" y="120" width="220" height="60" as="geometry" />
        </mxCell>
        <mxCell id="LghL1uSSu05X4-vozEFq-58" style="edgeStyle=orthogonalEdgeStyle;orthogonalLoop=1;jettySize=auto;html=1;exitX=0;exitY=0.5;exitDx=0;exitDy=0;entryX=0;entryY=0.5;entryDx=0;entryDy=0;curved=1;" parent="1" source="LghL1uSSu05X4-vozEFq-46" target="LghL1uSSu05X4-vozEFq-45" edge="1">
          <mxGeometry relative="1" as="geometry" />
        </mxCell>
        <mxCell id="5e0MH2oscKsvfs1kzuwi-25" style="edgeStyle=orthogonalEdgeStyle;orthogonalLoop=1;jettySize=auto;html=1;exitX=1;exitY=0;exitDx=0;exitDy=0;entryX=0;entryY=0;entryDx=0;entryDy=0;curved=1;" edge="1" parent="1" source="LghL1uSSu05X4-vozEFq-46" target="5e0MH2oscKsvfs1kzuwi-15">
          <mxGeometry relative="1" as="geometry" />
        </mxCell>
        <mxCell id="LghL1uSSu05X4-vozEFq-46" value="row1" style="rounded=0;whiteSpace=wrap;html=1;" parent="1" vertex="1">
          <mxGeometry x="1400" y="40" width="220" height="60" as="geometry" />
        </mxCell>
        <mxCell id="LghL1uSSu05X4-vozEFq-47" value="row2" style="rounded=0;whiteSpace=wrap;html=1;" parent="1" vertex="1">
          <mxGeometry x="1400" y="200" width="220" height="60" as="geometry" />
        </mxCell>
        <mxCell id="LghL1uSSu05X4-vozEFq-48" value="0" style="ellipse;whiteSpace=wrap;html=1;aspect=fixed;" parent="1" vertex="1">
          <mxGeometry x="1410" y="130" width="40" height="40" as="geometry" />
        </mxCell>
        <mxCell id="LghL1uSSu05X4-vozEFq-49" value="1" style="ellipse;whiteSpace=wrap;html=1;aspect=fixed;" parent="1" vertex="1">
          <mxGeometry x="1410" y="50" width="40" height="40" as="geometry" />
        </mxCell>
        <mxCell id="LghL1uSSu05X4-vozEFq-50" value="2" style="ellipse;whiteSpace=wrap;html=1;aspect=fixed;" parent="1" vertex="1">
          <mxGeometry x="1410" y="210" width="40" height="40" as="geometry" />
        </mxCell>
        <mxCell id="LghL1uSSu05X4-vozEFq-57" style="edgeStyle=orthogonalEdgeStyle;orthogonalLoop=1;jettySize=auto;html=1;exitX=1;exitY=0.5;exitDx=0;exitDy=0;entryX=1;entryY=0.5;entryDx=0;entryDy=0;curved=1;" parent="1" source="LghL1uSSu05X4-vozEFq-51" target="LghL1uSSu05X4-vozEFq-52" edge="1">
          <mxGeometry relative="1" as="geometry" />
        </mxCell>
        <mxCell id="LghL1uSSu05X4-vozEFq-51" value="Kitty 10" style="rhombus;whiteSpace=wrap;html=1;" parent="1" vertex="1">
          <mxGeometry x="1620" y="120" width="60" height="60" as="geometry" />
        </mxCell>
        <mxCell id="LghL1uSSu05X4-vozEFq-52" value="Dog1 12" style="rhombus;whiteSpace=wrap;html=1;" parent="1" vertex="1">
          <mxGeometry x="1620" y="40" width="60" height="60" as="geometry" />
        </mxCell>
        <mxCell id="LghL1uSSu05X4-vozEFq-53" value="" style="rhombus;whiteSpace=wrap;html=1;" parent="1" vertex="1">
          <mxGeometry x="1620" y="200" width="60" height="60" as="geometry" />
        </mxCell>
        <mxCell id="LghL1uSSu05X4-vozEFq-55" value="Dog1 got another fish x11" style="text;html=1;align=center;verticalAlign=middle;resizable=0;points=[];autosize=1;strokeColor=none;fillColor=none;" parent="1" vertex="1">
          <mxGeometry x="1280" y="-20" width="160" height="30" as="geometry" />
        </mxCell>
        <mxCell id="5e0MH2oscKsvfs1kzuwi-4" style="edgeStyle=orthogonalEdgeStyle;rounded=0;orthogonalLoop=1;jettySize=auto;html=1;exitX=0.5;exitY=1;exitDx=0;exitDy=0;" edge="1" parent="1" source="5e0MH2oscKsvfs1kzuwi-1">
          <mxGeometry relative="1" as="geometry">
            <mxPoint x="1510" y="540" as="targetPoint" />
          </mxGeometry>
        </mxCell>
        <mxCell id="5e0MH2oscKsvfs1kzuwi-1" value="row0" style="rounded=0;whiteSpace=wrap;html=1;" vertex="1" parent="1">
          <mxGeometry x="1400" y="400" width="220" height="60" as="geometry" />
        </mxCell>
        <mxCell id="5e0MH2oscKsvfs1kzuwi-2" value="0" style="ellipse;whiteSpace=wrap;html=1;aspect=fixed;" vertex="1" parent="1">
          <mxGeometry x="1410" y="410" width="40" height="40" as="geometry" />
        </mxCell>
        <mxCell id="5e0MH2oscKsvfs1kzuwi-3" value="Kitty 10" style="rhombus;whiteSpace=wrap;html=1;" vertex="1" parent="1">
          <mxGeometry x="1620" y="400" width="60" height="60" as="geometry" />
        </mxCell>
        <mxCell id="5e0MH2oscKsvfs1kzuwi-9" style="edgeStyle=orthogonalEdgeStyle;rounded=0;orthogonalLoop=1;jettySize=auto;html=1;exitX=0.5;exitY=0;exitDx=0;exitDy=0;" edge="1" parent="1" source="5e0MH2oscKsvfs1kzuwi-5">
          <mxGeometry relative="1" as="geometry">
            <mxPoint x="1510" y="570" as="targetPoint" />
          </mxGeometry>
        </mxCell>
        <mxCell id="5e0MH2oscKsvfs1kzuwi-5" value="row1" style="rounded=0;whiteSpace=wrap;html=1;" vertex="1" parent="1">
          <mxGeometry x="1400" y="640" width="220" height="60" as="geometry" />
        </mxCell>
        <mxCell id="5e0MH2oscKsvfs1kzuwi-6" value="1" style="ellipse;whiteSpace=wrap;html=1;aspect=fixed;" vertex="1" parent="1">
          <mxGeometry x="1410" y="650" width="40" height="40" as="geometry" />
        </mxCell>
        <mxCell id="5e0MH2oscKsvfs1kzuwi-7" value="Dog1 12" style="rhombus;whiteSpace=wrap;html=1;" vertex="1" parent="1">
          <mxGeometry x="1620" y="640" width="60" height="60" as="geometry" />
        </mxCell>
        <mxCell id="5e0MH2oscKsvfs1kzuwi-10" value="&lt;font style=&quot;font-size: 17px;&quot;&gt;1.&lt;/font&gt;" style="text;html=1;align=center;verticalAlign=middle;resizable=0;points=[];autosize=1;strokeColor=none;fillColor=none;" vertex="1" parent="1">
          <mxGeometry x="1340" y="415" width="40" height="30" as="geometry" />
        </mxCell>
        <mxCell id="5e0MH2oscKsvfs1kzuwi-12" value="&lt;font style=&quot;font-size: 17px;&quot;&gt;2.&lt;/font&gt;" style="text;html=1;align=center;verticalAlign=middle;resizable=0;points=[];autosize=1;strokeColor=none;fillColor=none;" vertex="1" parent="1">
          <mxGeometry x="1340" y="655" width="40" height="30" as="geometry" />
        </mxCell>
        <mxCell id="5e0MH2oscKsvfs1kzuwi-13" value="row0" style="rounded=0;whiteSpace=wrap;html=1;" vertex="1" parent="1">
          <mxGeometry x="1760" y="120" width="220" height="60" as="geometry" />
        </mxCell>
        <mxCell id="5e0MH2oscKsvfs1kzuwi-35" style="edgeStyle=orthogonalEdgeStyle;orthogonalLoop=1;jettySize=auto;html=1;exitX=1;exitY=0;exitDx=0;exitDy=0;entryX=0;entryY=0;entryDx=0;entryDy=0;curved=1;" edge="1" parent="1" source="5e0MH2oscKsvfs1kzuwi-15" target="5e0MH2oscKsvfs1kzuwi-27">
          <mxGeometry relative="1" as="geometry" />
        </mxCell>
        <mxCell id="5e0MH2oscKsvfs1kzuwi-15" value="row1" style="rounded=0;whiteSpace=wrap;html=1;" vertex="1" parent="1">
          <mxGeometry x="1760" y="40" width="220" height="60" as="geometry" />
        </mxCell>
        <mxCell id="5e0MH2oscKsvfs1kzuwi-16" value="row2" style="rounded=0;whiteSpace=wrap;html=1;" vertex="1" parent="1">
          <mxGeometry x="1760" y="200" width="220" height="60" as="geometry" />
        </mxCell>
        <mxCell id="5e0MH2oscKsvfs1kzuwi-17" value="1" style="ellipse;whiteSpace=wrap;html=1;aspect=fixed;" vertex="1" parent="1">
          <mxGeometry x="1770" y="130" width="40" height="40" as="geometry" />
        </mxCell>
        <mxCell id="5e0MH2oscKsvfs1kzuwi-18" value="0" style="ellipse;whiteSpace=wrap;html=1;aspect=fixed;" vertex="1" parent="1">
          <mxGeometry x="1770" y="50" width="40" height="40" as="geometry" />
        </mxCell>
        <mxCell id="5e0MH2oscKsvfs1kzuwi-19" value="2" style="ellipse;whiteSpace=wrap;html=1;aspect=fixed;" vertex="1" parent="1">
          <mxGeometry x="1770" y="210" width="40" height="40" as="geometry" />
        </mxCell>
        <mxCell id="5e0MH2oscKsvfs1kzuwi-21" value="Kitty 10" style="rhombus;whiteSpace=wrap;html=1;" vertex="1" parent="1">
          <mxGeometry x="1980" y="120" width="60" height="60" as="geometry" />
        </mxCell>
        <mxCell id="5e0MH2oscKsvfs1kzuwi-22" value="Dog1 12" style="rhombus;whiteSpace=wrap;html=1;" vertex="1" parent="1">
          <mxGeometry x="1980" y="40" width="60" height="60" as="geometry" />
        </mxCell>
        <mxCell id="5e0MH2oscKsvfs1kzuwi-23" value="Dog2 1" style="rhombus;whiteSpace=wrap;html=1;" vertex="1" parent="1">
          <mxGeometry x="1980" y="200" width="60" height="60" as="geometry" />
        </mxCell>
        <mxCell id="5e0MH2oscKsvfs1kzuwi-24" value="Dog2 got another fish&amp;nbsp;" style="text;html=1;align=center;verticalAlign=middle;resizable=0;points=[];autosize=1;strokeColor=none;fillColor=none;" vertex="1" parent="1">
          <mxGeometry x="1620" y="-20" width="140" height="30" as="geometry" />
        </mxCell>
        <mxCell id="5e0MH2oscKsvfs1kzuwi-26" value="row0" style="rounded=0;whiteSpace=wrap;html=1;" vertex="1" parent="1">
          <mxGeometry x="2080" y="200" width="220" height="60" as="geometry" />
        </mxCell>
        <mxCell id="5e0MH2oscKsvfs1kzuwi-40" style="edgeStyle=orthogonalEdgeStyle;orthogonalLoop=1;jettySize=auto;html=1;exitX=0;exitY=0.5;exitDx=0;exitDy=0;entryX=0;entryY=0.5;entryDx=0;entryDy=0;curved=1;" edge="1" parent="1" source="5e0MH2oscKsvfs1kzuwi-27" target="5e0MH2oscKsvfs1kzuwi-28">
          <mxGeometry relative="1" as="geometry" />
        </mxCell>
        <mxCell id="5e0MH2oscKsvfs1kzuwi-27" value="row1" style="rounded=0;whiteSpace=wrap;html=1;" vertex="1" parent="1">
          <mxGeometry x="2080" y="40" width="220" height="60" as="geometry" />
        </mxCell>
        <mxCell id="5e0MH2oscKsvfs1kzuwi-38" style="edgeStyle=orthogonalEdgeStyle;orthogonalLoop=1;jettySize=auto;html=1;exitX=0;exitY=0.5;exitDx=0;exitDy=0;entryX=0;entryY=0.5;entryDx=0;entryDy=0;curved=1;" edge="1" parent="1" source="5e0MH2oscKsvfs1kzuwi-28" target="5e0MH2oscKsvfs1kzuwi-26">
          <mxGeometry relative="1" as="geometry" />
        </mxCell>
        <mxCell id="5e0MH2oscKsvfs1kzuwi-28" value="row2" style="rounded=0;whiteSpace=wrap;html=1;" vertex="1" parent="1">
          <mxGeometry x="2080" y="120" width="220" height="60" as="geometry" />
        </mxCell>
        <mxCell id="5e0MH2oscKsvfs1kzuwi-29" value="2" style="ellipse;whiteSpace=wrap;html=1;aspect=fixed;" vertex="1" parent="1">
          <mxGeometry x="2090" y="210" width="40" height="40" as="geometry" />
        </mxCell>
        <mxCell id="5e0MH2oscKsvfs1kzuwi-30" value="0" style="ellipse;whiteSpace=wrap;html=1;aspect=fixed;" vertex="1" parent="1">
          <mxGeometry x="2090" y="50" width="40" height="40" as="geometry" />
        </mxCell>
        <mxCell id="5e0MH2oscKsvfs1kzuwi-31" value="1" style="ellipse;whiteSpace=wrap;html=1;aspect=fixed;" vertex="1" parent="1">
          <mxGeometry x="2090" y="130" width="40" height="40" as="geometry" />
        </mxCell>
        <mxCell id="5e0MH2oscKsvfs1kzuwi-62" style="edgeStyle=orthogonalEdgeStyle;orthogonalLoop=1;jettySize=auto;html=1;exitX=1;exitY=0.5;exitDx=0;exitDy=0;entryX=1;entryY=0.5;entryDx=0;entryDy=0;curved=1;" edge="1" parent="1" source="5e0MH2oscKsvfs1kzuwi-32" target="5e0MH2oscKsvfs1kzuwi-33">
          <mxGeometry relative="1" as="geometry" />
        </mxCell>
        <mxCell id="5e0MH2oscKsvfs1kzuwi-32" value="Kitty 5" style="rhombus;whiteSpace=wrap;html=1;" vertex="1" parent="1">
          <mxGeometry x="2300" y="200" width="60" height="60" as="geometry" />
        </mxCell>
        <mxCell id="5e0MH2oscKsvfs1kzuwi-33" value="Dog2 15" style="rhombus;whiteSpace=wrap;html=1;" vertex="1" parent="1">
          <mxGeometry x="2300" y="40" width="60" height="60" as="geometry" />
        </mxCell>
        <mxCell id="5e0MH2oscKsvfs1kzuwi-34" value="Dog1 12" style="rhombus;whiteSpace=wrap;html=1;" vertex="1" parent="1">
          <mxGeometry x="2300" y="120" width="60" height="60" as="geometry" />
        </mxCell>
        <mxCell id="5e0MH2oscKsvfs1kzuwi-36" value="Dog2 got another fish&amp;nbsp; x14" style="text;html=1;align=center;verticalAlign=middle;resizable=0;points=[];autosize=1;strokeColor=none;fillColor=none;" vertex="1" parent="1">
          <mxGeometry x="1960" y="-20" width="160" height="30" as="geometry" />
        </mxCell>
        <mxCell id="5e0MH2oscKsvfs1kzuwi-37" value="Kitty lost 5 fish" style="text;html=1;align=center;verticalAlign=middle;resizable=0;points=[];autosize=1;strokeColor=none;fillColor=none;" vertex="1" parent="1">
          <mxGeometry x="1980" y="-50" width="100" height="30" as="geometry" />
        </mxCell>
        <mxCell id="5e0MH2oscKsvfs1kzuwi-46" style="edgeStyle=orthogonalEdgeStyle;rounded=0;orthogonalLoop=1;jettySize=auto;html=1;exitX=0.5;exitY=1;exitDx=0;exitDy=0;" edge="1" parent="1" source="5e0MH2oscKsvfs1kzuwi-47">
          <mxGeometry relative="1" as="geometry">
            <mxPoint x="2190" y="540" as="targetPoint" />
          </mxGeometry>
        </mxCell>
        <mxCell id="5e0MH2oscKsvfs1kzuwi-47" value="row0" style="rounded=0;whiteSpace=wrap;html=1;" vertex="1" parent="1">
          <mxGeometry x="2080" y="400" width="220" height="60" as="geometry" />
        </mxCell>
        <mxCell id="5e0MH2oscKsvfs1kzuwi-48" value="0" style="ellipse;whiteSpace=wrap;html=1;aspect=fixed;" vertex="1" parent="1">
          <mxGeometry x="2090" y="410" width="40" height="40" as="geometry" />
        </mxCell>
        <mxCell id="5e0MH2oscKsvfs1kzuwi-67" style="rounded=0;orthogonalLoop=1;jettySize=auto;html=1;exitX=1;exitY=0.5;exitDx=0;exitDy=0;strokeColor=default;" edge="1" parent="1" source="5e0MH2oscKsvfs1kzuwi-49">
          <mxGeometry relative="1" as="geometry">
            <mxPoint x="2629.9999999999995" y="610" as="targetPoint" />
          </mxGeometry>
        </mxCell>
        <mxCell id="5e0MH2oscKsvfs1kzuwi-49" value="Dog1 12" style="rhombus;whiteSpace=wrap;html=1;" vertex="1" parent="1">
          <mxGeometry x="2300" y="400" width="60" height="60" as="geometry" />
        </mxCell>
        <mxCell id="5e0MH2oscKsvfs1kzuwi-50" value="&lt;font style=&quot;font-size: 17px;&quot;&gt;1.&lt;/font&gt;" style="text;html=1;align=center;verticalAlign=middle;resizable=0;points=[];autosize=1;strokeColor=none;fillColor=none;" vertex="1" parent="1">
          <mxGeometry x="2020" y="415" width="40" height="30" as="geometry" />
        </mxCell>
        <mxCell id="5e0MH2oscKsvfs1kzuwi-65" style="edgeStyle=orthogonalEdgeStyle;orthogonalLoop=1;jettySize=auto;html=1;exitX=0.5;exitY=1;exitDx=0;exitDy=0;curved=1;" edge="1" parent="1" source="5e0MH2oscKsvfs1kzuwi-52">
          <mxGeometry relative="1" as="geometry">
            <mxPoint x="2190" y="760" as="targetPoint" />
          </mxGeometry>
        </mxCell>
        <mxCell id="5e0MH2oscKsvfs1kzuwi-52" value="row0" style="rounded=0;whiteSpace=wrap;html=1;" vertex="1" parent="1">
          <mxGeometry x="2080" y="595" width="220" height="60" as="geometry" />
        </mxCell>
        <mxCell id="5e0MH2oscKsvfs1kzuwi-53" value="1" style="ellipse;whiteSpace=wrap;html=1;aspect=fixed;" vertex="1" parent="1">
          <mxGeometry x="2090" y="605" width="40" height="40" as="geometry" />
        </mxCell>
        <mxCell id="5e0MH2oscKsvfs1kzuwi-69" style="rounded=0;orthogonalLoop=1;jettySize=auto;html=1;exitX=1;exitY=0.5;exitDx=0;exitDy=0;" edge="1" parent="1" source="5e0MH2oscKsvfs1kzuwi-54">
          <mxGeometry relative="1" as="geometry">
            <mxPoint x="2609.9999999999995" y="910" as="targetPoint" />
          </mxGeometry>
        </mxCell>
        <mxCell id="5e0MH2oscKsvfs1kzuwi-54" value="Kitty 10" style="rhombus;whiteSpace=wrap;html=1;" vertex="1" parent="1">
          <mxGeometry x="2300" y="595" width="60" height="60" as="geometry" />
        </mxCell>
        <mxCell id="5e0MH2oscKsvfs1kzuwi-55" value="&lt;font style=&quot;font-size: 17px;&quot;&gt;2.&lt;/font&gt;" style="text;html=1;align=center;verticalAlign=middle;resizable=0;points=[];autosize=1;strokeColor=none;fillColor=none;" vertex="1" parent="1">
          <mxGeometry x="2020" y="610" width="40" height="30" as="geometry" />
        </mxCell>
        <mxCell id="5e0MH2oscKsvfs1kzuwi-59" style="edgeStyle=orthogonalEdgeStyle;rounded=0;orthogonalLoop=1;jettySize=auto;html=1;exitX=0.5;exitY=0;exitDx=0;exitDy=0;" edge="1" parent="1" source="5e0MH2oscKsvfs1kzuwi-56">
          <mxGeometry relative="1" as="geometry">
            <mxPoint x="2190" y="770" as="targetPoint" />
          </mxGeometry>
        </mxCell>
        <mxCell id="5e0MH2oscKsvfs1kzuwi-56" value="row2" style="rounded=0;whiteSpace=wrap;html=1;" vertex="1" parent="1">
          <mxGeometry x="2080" y="850" width="220" height="60" as="geometry" />
        </mxCell>
        <mxCell id="5e0MH2oscKsvfs1kzuwi-57" value="2" style="ellipse;whiteSpace=wrap;html=1;aspect=fixed;" vertex="1" parent="1">
          <mxGeometry x="2090" y="860" width="40" height="40" as="geometry" />
        </mxCell>
        <mxCell id="5e0MH2oscKsvfs1kzuwi-70" style="rounded=0;orthogonalLoop=1;jettySize=auto;html=1;exitX=1;exitY=0.5;exitDx=0;exitDy=0;" edge="1" parent="1" source="5e0MH2oscKsvfs1kzuwi-58">
          <mxGeometry relative="1" as="geometry">
            <mxPoint x="2609.9999999999995" y="410" as="targetPoint" />
          </mxGeometry>
        </mxCell>
        <mxCell id="5e0MH2oscKsvfs1kzuwi-58" value="Dog2 1" style="rhombus;whiteSpace=wrap;html=1;" vertex="1" parent="1">
          <mxGeometry x="2300" y="850" width="60" height="60" as="geometry" />
        </mxCell>
        <mxCell id="5e0MH2oscKsvfs1kzuwi-60" value="&lt;font style=&quot;font-size: 17px;&quot;&gt;3.&lt;/font&gt;" style="text;html=1;align=center;verticalAlign=middle;resizable=0;points=[];autosize=1;strokeColor=none;fillColor=none;" vertex="1" parent="1">
          <mxGeometry x="2020" y="860" width="40" height="30" as="geometry" />
        </mxCell>
      </root>
    </mxGraphModel>
  </diagram>
</mxfile>
